<?xml version="1.0" encoding="UTF-8" standalone="no"?>
<svg xmlns="http://www.w3.org/2000/svg" viewBox="0 0 53.33 64">
<defs>
<style>.cls-1{fill:#0496FF;}</style>
</defs>
<title>Asset 73</title>
<g id="Layer_2" data-name="Layer 2">
<g id="Layer_1-2" data-name="Layer 1">
<path class="cls-1" d="M50.67,64A2.69,2.69,0,0,1,49,63.44L26.67,46.05,4.3,63.44A2.66,2.66,0,0,1,0,61.33V8A8,8,0,0,1,8,0H45.33a8,8,0,0,1,8,8V61.33A2.66,2.66,0,0,1,50.67,64Zm-24-24a2.68,2.68,0,0,1,1.63.56L48,55.88V8a2.68,2.68,0,0,0-2.67-2.67H8A2.68,2.68,0,0,0,5.33,8V55.88L25,40.56A2.69,2.69,0,0,1,26.67,40Z" />
</g>
</g>
</svg>